<svg xmlns="http://www.w3.org/2000/svg">
<g id="akar">
		<path id="Vector" d="M44 0C19.69 0 0 19.69 0 44C0 63.47 12.595 79.915 30.085 85.745C32.285 86.13 33.11 84.81 33.11 83.655C33.11 82.61 33.055 79.145 33.055 75.46C22 77.495 19.14 72.765 18.26 70.29C17.765 69.025 15.62 65.12 13.75 64.075C12.21 63.25 10.01 61.215 13.695 61.16C17.16 61.105 19.635 64.35 20.46 65.67C24.42 72.325 30.745 70.455 33.275 69.3C33.66 66.44 34.815 64.515 36.08 63.415C26.29 62.315 16.06 58.52 16.06 41.69C16.06 36.905 17.765 32.945 20.57 29.865C20.13 28.765 18.59 24.255 21.01 18.205C21.01 18.205 24.695 17.05 33.11 22.715C36.63 21.725 40.37 21.23 44.11 21.23C47.85 21.23 51.59 21.725 55.11 22.715C63.525 16.995 67.21 18.205 67.21 18.205C69.63 24.255 68.09 28.765 67.65 29.865C70.455 32.945 72.16 36.85 72.16 41.69C72.16 58.575 61.875 62.315 52.085 63.415C53.68 64.79 55.055 67.43 55.055 71.555C55.055 77.44 55 82.17 55 83.655C55 84.81 55.825 86.185 58.025 85.745C66.7596 82.796 74.3497 77.1822 79.7268 69.6937C85.1039 62.2052 87.9974 53.2191 88 44C88 19.69 68.31 0 44 0Z" fill="#000000" fill-opacity="1.000000" fill-rule="evenodd"/>
	</g>
    <g id="greensock">
		<path id="Vector" d="M67.365 119.745C65.8012 119.471 64.1812 118.729 63.2625 117.907C62.6388 117.253 62.2829 116.389 62.265 115.485C62.265 114.566 62.7337 113.276 63.4762 111.99C63.9262 111.266 64.2787 110.486 64.53 109.665C64.6875 109.099 65.0175 108.18 65.2725 107.595L65.7225 106.523L65.8387 99.3563C65.8987 95.3925 66.015 91.7213 66.1125 91.1512C66.3675 89.5088 66.795 87.9075 67.3612 86.3475L67.7925 85.3125L67.1662 84.9413C66.6 84.5887 66.1312 84.1013 64.275 81.8925C61.9912 79.1962 58.9837 77.7112 54.7237 77.205C53.3362 77.07 51.93 76.9688 50.5237 76.9125C44.2725 76.62 40.6987 75.3113 37.4775 72.1462C35.0737 69.7838 33.825 67.0275 33.3187 62.9662C32.6362 57.4763 31.875 54.6638 30.4687 52.38C30.1221 51.816 29.7228 51.2861 29.2762 50.7975L28.71 50.2313L27.4612 51.0338C26.7787 51.4838 25.8187 52.05 25.35 52.305C23.7862 53.1638 22.3012 54.12 20.8762 55.155C17.3812 57.6937 13.5712 60.8775 11.4825 62.9662C10.545 63.9037 10.0575 64.3125 9.83997 64.275C8.41498 64.0613 9.50623 57.8887 11.8312 53.2388C14.8012 47.2425 19.8 41.715 25.5825 37.9838C30.33 34.9163 38.0062 30.6975 41.5575 29.2125C47.865 26.5762 56.0287 23.7225 61.6162 22.2C62.79 21.8663 63.51 21.5737 63.9975 21.2438C65.0925 20.4825 66.165 20.1113 67.395 20.0925C68.43 20.0737 68.5275 20.055 69.525 19.3875C70.6987 18.6263 71.0475 18.585 72.2212 18.9975L72.9825 19.2712L73.92 18.6263L74.8575 18L76.2037 18.0187C77.2387 18.0375 77.7075 18 78.1575 17.805C78.7237 17.55 78.7425 17.5125 78.9 16.575C79.2525 14.5425 79.29 13.5262 79.0762 12.2963C78.8025 10.6763 78.765 4.38751 79.0387 3.15375C79.3312 1.82623 79.5262 1.55249 80.5237 1.065C82.0087 0.341248 83.1225 0.127502 85.68 0.127502C88.8037 0.127502 90.3862 0.558777 91.56 1.69122C92.6137 2.70752 92.79 5.08875 92.2425 10.6763C91.9087 13.8975 91.8712 14.7975 91.9688 16.905C92.0062 18.2513 92.1037 19.5225 92.145 19.6987C92.2237 20.0325 92.3025 20.0513 93.435 20.07C94.5487 20.0887 94.7437 20.1487 95.7975 20.6962C96.8137 21.225 97.575 21.87 97.7325 22.3387C97.7512 22.4363 97.9275 22.4363 98.2387 22.3387C98.8425 22.1625 99.3712 22.3575 99.8025 22.8862C100.057 23.22 100.211 23.2762 100.8 23.2762C101.602 23.2762 101.895 23.4713 102.559 24.45C102.869 24.8893 103.295 25.2344 103.789 25.4475C104.884 25.995 106.369 27.5175 106.935 28.7288C107.812 30.525 107.989 32.6138 107.441 34.4888C107.246 35.1937 107.246 35.2125 107.655 35.895C108.514 37.3613 108.829 39.1575 108.476 40.68L108.281 41.58L108.866 42.165C111.776 45.075 111.345 49.8225 107.794 54.06C107.397 54.5441 107.062 55.0756 106.796 55.6425C106.114 57.4575 105.33 58.7288 104.317 59.7825L103.282 60.8362L102.229 60.8362C101.175 60.8362 99.69 60.4838 98.79 60.015C98.4187 59.82 98.4 59.82 98.4787 60.0525C98.715 60.9113 99.3 64.4062 99.495 66.3412C99.8062 69.3113 99.7087 73.6275 99.3 75.4838C99.0013 76.8585 98.5009 78.1816 97.815 79.41C97.425 80.0363 97.4062 80.1713 97.4812 80.9325C97.5975 82.005 97.3462 83.805 96.915 84.9938C96.3862 86.3813 96.1912 87.0262 96.075 87.7275C95.9775 88.3312 95.9775 88.3312 96.4087 88.3312C96.975 88.3312 97.2862 88.665 97.2862 89.3287C97.2862 89.6213 97.0312 91.2037 96.72 92.8237C95.8612 97.3763 95.8012 97.8825 95.8012 102.296C95.7825 106.849 95.7825 106.807 96.8175 107.49L99.1425 108.994C101.143 110.321 103.285 111.422 105.529 112.275C108.791 113.565 109.241 113.895 109.241 114.99C109.241 115.477 109.144 115.654 108.735 116.044C107.486 117.255 105.022 117.529 100.061 117C97.4832 116.758 94.8955 116.635 92.3062 116.629C85.47 116.531 84.4725 116.295 83.5762 114.596C83.07 113.621 83.1675 112.35 83.8687 110.261C84.18 109.343 84.4537 108.405 84.69 107.449C85.1587 105.184 84.8475 102.487 83.7525 99.4425L82.815 96.8438C81.8962 94.2075 81.39 89.3812 81.9375 88.29C82.035 88.0763 82.2112 88.035 82.68 88.0538L83.265 88.1138L83.7525 87.0975C84.1237 86.295 84.5325 85.77 85.6462 84.6562L87.0712 83.2313L86.9925 82.3125C86.9325 81.435 85.7812 77.175 85.6237 77.1937C85.5637 77.1937 85.2525 77.625 84.9 78.1688C84.0412 79.4587 82.1475 81.45 81.0712 82.1738C80.6025 82.485 80.2125 82.8563 80.2125 82.9763C80.1937 83.505 79.7437 84.54 79.1962 85.26C78.6675 85.965 78.63 86.0812 78.7087 86.7037C78.8437 87.6225 78.5512 90.57 78.2025 92.115C77.8864 93.2622 77.4541 94.3742 76.9125 95.4338C75.5662 98.2275 74.55 100.725 74.295 101.88C74.1108 102.992 73.9931 104.114 73.9425 105.24C73.8825 106.568 73.7475 107.857 73.65 108.131C73.515 108.503 73.515 108.795 73.6312 109.361C73.7287 109.77 73.7887 110.689 73.7662 111.412C73.7475 112.41 73.8262 113.055 74.1187 114.225C74.625 116.216 74.7225 117.469 74.49 118.211C74.3325 118.68 74.1787 118.856 73.65 119.111C72.4762 119.715 69.1575 120.049 67.3612 119.737L67.365 119.745ZM72.1087 118.144C72.7912 117.949 73.38 117.364 73.38 116.835C73.38 116.599 73.185 115.916 72.9487 115.312C72.48 114.161 71.6775 111.113 71.6775 110.606C71.6775 110.351 71.6962 110.333 72.0862 110.546L72.5175 110.783L72.5175 110.235C72.4549 109.73 72.3431 109.233 72.1837 108.75C71.8125 107.636 71.775 107.617 69.4087 107.479L67.8075 107.4L67.2225 107.966C66.9008 108.297 66.6189 108.665 66.3825 109.061C66.1275 109.568 66.03 110.333 66.1875 110.505C66.225 110.565 66.6187 110.505 67.0462 110.408C67.3 110.332 67.5618 110.287 67.8262 110.273C67.8262 110.291 67.395 110.644 66.8512 111.015C64.5075 112.774 63.6862 113.846 63.6862 115.215C63.6862 116.64 65.0325 117.754 67.1437 118.088C68.5875 118.301 71.4 118.361 72.105 118.148L72.1087 118.144ZM103.886 115.819C104.471 115.114 104.392 114.394 103.65 113.573C103.219 113.141 102.731 112.77 102.184 112.478C101.636 112.185 101.089 111.851 100.541 111.503C99.551 110.861 98.5338 110.261 97.4925 109.706C96.5925 109.219 95.715 108.709 94.8562 108.165L94.5037 107.891L94.5037 102.521C94.5037 97.23 94.485 97.1512 94.2112 97.23C92.8425 97.6013 90.5775 97.7775 87.7087 97.7175L84.6037 97.68L85.0537 98.775C85.8937 100.845 86.325 103.62 86.325 106.804C86.325 107.996 86.2462 108.424 85.9537 109.264C85.7962 109.672 85.6612 110.085 85.5225 110.494C85.4625 110.67 85.68 110.805 86.4787 111.041C87.0637 111.218 87.9225 111.394 88.4137 111.45L89.3137 111.547L89.2162 112.448C89.1187 113.464 89.235 114.536 89.49 114.87C89.6475 115.065 90.2325 115.144 92.9475 115.26C94.9987 115.357 97.2262 115.571 98.9812 115.826C100.504 116.062 102.146 116.258 102.634 116.258C103.455 116.276 103.534 116.239 103.882 115.826L103.886 115.819ZM72.6187 106.68C72.6975 106.62 72.8137 105.566 72.855 104.318C73.0125 100.823 73.1475 100.312 74.9062 96.3675C76.35 93.1462 77.115 90.1388 77.055 88.0087L77.0175 86.7375L76.47 87.2662C75.3375 88.3987 76.1175 86.6213 77.4675 85.0388C78.4837 83.8275 78.8362 83.1638 78.99 82.0912C79.0687 81.66 79.2262 81.4462 79.89 80.94C82.3735 79.0639 84.287 76.5349 85.4175 73.635C85.6912 72.93 86.3925 70.53 86.9812 68.3025C88.0762 64.1813 88.6612 62.4037 89.19 61.6425C89.385 61.35 89.4637 61.29 89.4262 61.485C89.143 62.5324 88.9214 63.5955 88.7625 64.6688C88.605 65.625 88.3125 67.5 88.1175 68.8088C87.7462 71.4863 87.3562 73.2037 86.8275 74.5312L86.475 75.4313L87.4125 77.8538C88.3875 80.3325 88.8375 82.1325 88.9162 83.8688L88.9762 84.8438L88.215 85.0013C87.2103 85.1791 86.3136 85.7396 85.7137 86.565C85.05 87.5212 84.6787 88.305 84.855 88.4775C84.9337 88.5563 85.89 88.7325 86.985 88.8675C88.6837 89.0625 89.3287 89.0625 91.575 88.9275C92.55 88.89 93.51 88.7925 94.4662 88.6537C94.68 88.575 94.8975 88.1475 95.2462 87.0338C96.0487 84.4763 96.2025 83.5762 96.105 81.78L96.0262 80.1975L96.435 79.6688C97.3912 78.4575 98.1337 76.2712 98.445 73.71C98.8162 70.5862 98.1337 64.0425 96.8625 58.4175C96.2587 55.74 96.0037 54.1387 96.0037 52.9688L96.0037 51.9338L95.0475 52.0312C91.6087 52.4025 87.45 52.305 84.9112 51.7762C83.5237 51.5025 80.0287 50.4675 79.2675 50.1338L78.6637 49.86L78.585 50.5425C78.525 50.9138 78.4687 51.285 78.39 51.675C78.2737 52.0837 78.3112 52.1813 79.035 52.8862C79.935 53.805 80.2087 54.2737 80.2087 54.8962C80.2087 55.2863 79.995 55.6013 78.9 56.7338C78.1149 57.5715 77.2438 58.3244 76.3012 58.98L75.03 59.8387L74.4825 61.7325C72.5287 68.6663 72.1575 74.9738 73.4475 79.485L73.7587 80.6175L73.1325 81.3975C70.7887 84.345 69.4012 86.5912 69.1875 87.8438C69.0625 88.4605 68.9187 89.0733 68.7562 89.6813C68.25 91.6163 67.8562 94.4475 67.6837 97.515C67.5635 100.083 67.3947 102.648 67.1775 105.21L67.08 105.971L68.055 106.264C68.6025 106.44 69.4237 106.635 69.8925 106.714C70.77 106.849 72.3937 106.811 72.645 106.676L72.6187 106.68ZM91.5825 95.9363C93.105 95.8387 94.4925 95.6025 94.7662 95.37C94.8825 95.2913 95.0212 94.8825 95.0587 94.47L95.1562 93.7275L93.945 94.0013C92.9887 94.1963 92.0325 94.3125 91.0725 94.3912C88.7662 94.4888 86.445 94.4288 84.1575 94.1963C83.3962 94.08 83.3962 94.08 83.6287 95.0737C83.8237 95.8163 83.865 95.8538 85.8562 95.9925C87.1837 96.1088 89.04 96.09 91.5787 95.9325L91.5825 95.9363ZM90.3112 92.5388C92.3025 92.3625 94.785 91.935 95.2725 91.68C95.43 91.6013 95.565 91.3088 95.625 90.975L95.8012 89.94L95.8987 89.4525L95.4112 89.55C93.2437 90 91.6012 90.135 88.32 90.135C85.1175 90.135 84.7462 90.1163 83.9062 89.8237C83.5834 89.6877 83.2397 89.6078 82.89 89.5875C82.755 89.6663 82.7325 90.78 82.8525 91.56C82.9312 92.0287 83.01 92.1075 83.4787 92.2425C84.9637 92.6512 87.465 92.7488 90.315 92.5162L90.3112 92.5388ZM54.0637 74.9213C59.0625 73.4775 65.6062 69.2363 70.9575 63.9263C72.6975 62.1863 72.9112 61.9537 73.1437 61.1738L73.455 60.1763C73.4925 60.0975 73.1812 59.9625 72.7725 59.865C71.7 59.61 70.8787 58.9875 70.8787 58.4213C70.8787 58.0875 70.6837 57.7575 70.1175 57.15C69.1987 56.115 68.9662 55.665 68.8687 54.6713L68.79 53.8688L67.695 53.0887C67.0687 52.6387 64.8825 51.4275 62.5575 50.2575C60.7872 49.3939 59.0544 48.4556 57.3637 47.445C55.41 46.1362 54.1012 44.5725 53.3587 42.72C53.2237 42.3488 53.0475 42.0375 52.9875 42.0375C52.83 42.0375 48.435 46.275 46.56 48.2662C41.9325 53.1487 38.7487 57.3862 36.735 61.3125C36.2287 62.2875 35.6812 63.4425 35.5237 63.87L35.2312 64.65L35.5837 65.9587C35.7975 66.6638 36.2475 67.815 36.6 68.4975C37.83 70.92 39.2962 72.3825 41.7187 73.575C44.3175 74.865 46.62 75.315 50.4675 75.255C52.5375 75.2363 53.145 75.1763 54.06 74.9025L54.0637 74.9213ZM14.61 57.7913C17.8912 54.8812 22.4212 51.6975 27.9712 48.3975C31.605 46.23 45.6487 39.1987 52.1137 36.3262C53.2875 35.7975 54.3412 35.31 54.4575 35.2538C54.5737 35.175 54.9075 34.335 55.2187 33.3975C56.5875 29.0625 57.27 28.2037 59.7487 27.6375C60.06 27.5588 60.1387 27.4612 60.1387 27.15C60.1387 26.5837 60.5287 25.275 60.8625 24.69C61.1175 24.24 61.1175 24.2213 60.9 24.2812C60.765 24.3187 59.9437 24.555 59.085 24.81C47.1712 28.2488 36.7612 32.8163 27.7762 38.52C18.1875 44.6138 12.66 51.9188 11.0587 60.6675L10.9425 61.3125L12.1162 60.1613C12.7425 59.5162 13.875 58.4625 14.6175 57.8175L14.61 57.7913ZM102.99 59.4525C103.946 58.965 105.431 56.7188 105.979 54.9413C106.136 54.315 106.447 53.73 106.897 53.2425C108.341 51.6412 109.534 48.7313 109.552 46.74C109.552 43.635 107.794 42.4425 105.236 43.77C104.902 43.9275 104.632 44.0438 104.591 44.0062C104.456 43.8713 105.176 43.1663 106.057 42.6188C107.209 41.8575 107.426 41.4075 107.426 39.7875C107.443 38.4781 107.054 37.1956 106.312 36.1163C105.96 35.5875 105.825 35.2388 105.881 35.0212L106.234 33.7125C106.721 31.9725 106.545 29.9813 105.784 28.7137C104.651 26.8013 103.264 25.8638 101.329 25.7062L100.196 25.6275L100.86 26.37C102.832 28.5 103.789 31.1738 103.399 33.4612C103.204 34.635 103.027 34.8675 101.895 35.3175L101.231 35.5912L101.31 36.4913C101.445 37.9575 101.194 39.03 100.256 41.0025C99.7875 42 99.435 42.8962 99.4762 42.9938C99.5925 43.3275 100.882 43.95 101.899 44.205L102.896 44.4413L102.27 44.655C101.449 44.91 101.272 45.2812 101.272 46.6275C101.272 47.8575 101.449 48.3675 102.345 49.7137C102.754 50.2988 103.027 50.9062 103.069 51.255C103.147 51.8025 103.129 51.84 102.679 51.9975C102.169 52.1406 101.644 52.2262 101.115 52.2525C99.2775 52.3688 99.1425 52.4288 98.3212 53.2087C97.5787 53.9138 97.56 53.9512 97.56 54.7313C97.56 55.8038 97.9687 57.975 98.2238 58.2675C98.5575 58.62 100.41 59.5388 101.134 59.6738C101.758 59.8304 102.418 59.7545 102.99 59.46L102.99 59.4525ZM75.9375 57.99C77.13 57.0525 78.0675 56.115 78.5925 55.3125C78.9262 54.825 78.945 54.7275 78.7875 54.315C78.5137 53.6888 76.7175 52.0687 75.72 51.5812C75.0553 51.2834 74.3522 51.0803 73.6312 50.9775L72.4012 50.82L71.64 49.8638C70.0575 47.91 69.18 46.3875 67.9275 43.4363C66.8325 40.935 65.8762 39.4725 64.3537 38.025C63.7275 37.44 63.2812 36.9525 63.3187 36.9525C63.3975 36.9525 64.14 37.3237 64.9987 37.7737C66.4237 38.535 66.6 38.595 67.245 38.4975C69.57 38.2238 71.6212 35.55 72.3637 31.8C72.5775 30.7463 73.0087 29.67 73.4587 29.025C73.4775 29.0062 74.3775 29.5912 75.4312 30.3525C78.1087 32.2463 78.6937 32.5388 80.2162 32.5988C81.2137 32.6362 81.78 32.5613 83.5762 32.13C87.405 31.1925 91.545 30.8212 94.065 31.155C95.49 31.35 97.5412 31.9763 99.0637 32.6962C100.567 33.4012 100.86 33.4387 101.347 33.0075C101.756 32.655 101.756 32.5988 101.756 31.29C101.737 29.355 101.032 27.2662 99.96 26.0175C99.4125 25.3725 97.8712 24.3187 96.345 23.5162C95.8024 23.2285 95.2624 22.936 94.725 22.6387C94.0012 22.2075 93.1837 22.2675 90.9562 22.8525C88.3762 23.5162 87.6937 23.5162 84.7462 22.755C82.245 22.1288 82.0912 22.11 79.6275 22.5C78.3187 22.695 75.0375 22.5787 73.9425 22.2863C73.395 22.1288 72.8475 21.975 72.3225 21.78C71.3662 21.4088 69.705 21.3488 68.2012 21.6225C65.2125 22.1512 62.9475 23.7712 62.1262 25.9763C61.695 27.09 61.755 27.6188 62.3212 27.9675C63.2212 28.5338 64.41 30.0787 64.41 30.6825C64.41 30.72 64.1175 30.4688 63.7837 30.1163C62.9437 29.2388 62.1825 28.845 61.2825 28.845C60.7002 28.8612 60.1339 29.0397 59.6476 29.3604C59.1613 29.681 58.7742 30.1312 58.53 30.66C58.2672 31.35 58.0455 32.055 57.8662 32.7712C57.3187 34.7625 56.8312 35.82 55.7962 37.2263C54.8775 38.4975 54.7425 39.0637 55.0725 40.4888C55.8937 44.0812 57.3187 45.5287 63.2737 48.9075C66.3975 50.685 67.9987 51.6825 69.1725 52.56C70.0725 53.2238 70.0912 53.265 70.0125 53.7712C69.8362 54.945 70.5787 56.2125 72.045 57.2475C72.4162 57.5025 72.6487 57.7762 72.6487 57.9713C72.6487 58.3237 73.6462 58.8113 74.3662 58.8113C74.775 58.8113 75.09 58.635 75.93 57.99L75.9375 57.99ZM100.02 51.405C102.285 51.4838 102.401 51.3075 101.194 49.9012C99.9225 48.435 99.5737 47.2463 100.042 45.9375L100.237 45.4313L99.435 45.0413C99.1612 44.9062 98.8875 44.7675 98.6137 44.67C98.4787 45.1987 98.34 45.705 98.2238 46.2338C97.9312 47.4263 97.5787 50.5125 97.56 51.8212C97.56 51.9375 97.755 51.9 98.0887 51.6863C98.5575 51.4125 98.7937 51.375 100.024 51.4125L100.02 51.405ZM92.4225 51.2888C93.7912 51.21 95.1975 51.1125 95.5687 51.0525L96.2512 50.955L96.33 48.7087C96.4462 45.5062 96.915 43.6125 98.3025 40.5825C99.2775 38.4338 99.7087 36.5588 99.495 35.1525C99.4162 34.5488 99.3787 34.5075 98.5575 34.155C97.0537 33.5579 95.4876 33.1315 93.8887 32.8837C92.3475 32.67 87.8137 32.7863 86.115 33.12C85.41 33.2363 84.1237 33.51 83.265 33.7238C81.135 34.2112 80.0025 34.155 78.3825 33.45C76.7812 32.745 75.765 32.1038 74.8087 31.2037C74.0475 30.4988 73.9687 30.4612 73.7737 30.6975C73.6162 30.8738 73.5375 31.4025 73.4812 32.535C73.4212 34.275 73.1475 35.19 72.3862 36.42C72.2171 36.673 72.0727 36.9418 71.955 37.2225C71.955 37.2825 72.54 37.965 73.2637 38.7075C75.765 41.3063 76.995 41.97 78.9675 41.8312C79.6125 41.7712 80.0625 41.7938 80.0625 41.8688C80.0625 42.0262 78.7912 43.02 78.2662 43.2938C78.0112 43.4288 77.955 43.5675 77.9925 43.86L78.3037 45.9113C78.48 47.085 78.615 47.6288 78.7912 47.7863C79.26 48.1763 81.6825 49.4288 83.205 50.0513C85.1962 50.8538 86.2912 51.1462 87.8137 51.2812C89.6887 51.4388 89.7262 51.4388 92.4225 51.2812L92.4225 51.2888ZM76.2712 49.14C76.3087 49.08 76.1737 47.9475 75.9187 46.6387C75.6075 44.8613 75.4312 44.2162 75.2362 44.04C75.1012 43.9238 74.3775 43.4138 73.6537 42.8887C72.7028 42.205 71.8018 41.4543 70.9575 40.6425L69.6112 39.315L68.8875 39.6863L68.1262 40.095C68.1903 40.4001 68.295 40.6953 68.4375 40.9725C68.6512 41.4413 69.0825 42.5925 69.3937 43.53C70.215 45.9713 70.86 47.145 72.48 49.2712L73.0837 50.0737L74.235 50.25C74.88 50.3475 75.525 50.4863 75.7012 50.5425C75.975 50.6588 76.0125 50.6025 76.0912 49.9763C76.1287 49.7025 76.1887 49.41 76.2675 49.1362L76.2712 49.14ZM101.017 24.8438C102.015 24.7463 102.191 24.6075 101.76 24.1613C101.486 23.8875 100.86 23.8688 100.354 24.1013C100.02 24.2587 99.945 24.2175 99.4162 23.6512C98.8687 23.0475 98.8312 23.025 98.145 23.1038C97.5187 23.1825 97.4212 23.1638 97.3425 22.9088C97.0986 22.4899 96.7955 22.1085 96.4425 21.7762C95.9989 21.2722 95.4443 20.8781 94.8225 20.625C93.6112 20.1562 92.9287 20.2162 91.7737 20.8613C88.4325 22.6763 88.5712 22.6575 85.3462 21.8362C82.3387 21.075 80.0925 20.295 79.3687 19.8038C78.765 19.395 77.475 18.945 76.3987 18.8063C75.5962 18.69 75.09 18.8663 74.3287 19.4888L73.92 19.8225L74.2912 20.4675C74.7975 21.3675 74.7412 21.4238 73.98 20.76C73.1587 20.0775 72.1837 19.6088 71.5575 19.5862C71.1075 19.5862 69.78 20.1713 69.6225 20.4263C69.5625 20.505 69.975 20.6025 70.5225 20.64C71.0887 20.7 71.8687 20.895 72.3975 21.1088C73.7662 21.6937 74.4675 21.8887 75.7162 22.0087C77.085 22.1437 79.5637 21.99 79.8562 21.7538C80.0137 21.6188 80.4412 21.5963 81.3412 21.675C82.5338 21.7538 83.0212 21.87 85.8525 22.6312C87.495 23.0812 88.6462 23.04 90.6 22.515C91.5 22.26 92.6325 22.0087 93.1012 21.9487C93.9037 21.87 94.0575 21.9113 95.31 22.4775C97.3012 23.3775 98.3587 23.9437 98.9437 24.4688C99.5287 24.975 99.6075 24.975 101.014 24.8588L101.017 24.8438ZM89.8837 21.4275L91.0762 20.8013L91.0387 19.59C91.02 18.75 90.9787 17.9288 90.9412 17.1113L90.8437 15.8625L89.6512 16.7812C88.9462 17.3287 88.2637 17.7375 87.9712 17.7975C87.1125 17.955 82.875 17.7975 82.4812 17.5837C81.9567 17.1963 81.4661 16.7647 81.015 16.2938L79.92 15.18L79.9012 15.8438C79.9012 16.1962 79.8637 16.8 79.785 17.1713C79.6875 17.8763 79.6875 17.895 80.4487 18.8513C80.8575 19.38 81.1912 19.8488 81.1912 19.905C81.1912 20.2762 86.835 22.035 88.1062 22.0538C88.515 22.0538 89.025 21.8775 89.8837 21.4275ZM87.6187 16.9913C89.025 16.7175 89.7075 15.7012 90.2362 13.125C90.7837 10.35 91.0575 5.99628 90.8025 4.14001C90.5662 2.46002 88.6912 1.71753 85.1175 1.83374C82.89 1.91248 81.9712 2.12628 81.21 2.77124C80.7412 3.16125 80.7412 3.20251 80.5275 5.05499C80.1375 8.60999 80.7225 13.6688 81.7387 15.5625C82.2262 16.4813 82.6575 16.8113 83.5537 16.9688C84.57 17.145 86.7375 17.145 87.615 16.9875L87.6187 16.9913Z" fill="#000000" fill-opacity="1.000000" fill-rule="nonzero"/>
	</g>

	<g id="bootstrap">
		<path id="Vector" d="M0 75.7821C0 81.9781 5.08029 87 11.3468 87L76.6528 87C82.9204 87 88 81.9774 88 75.7821L88 11.2183C88 5.02185 82.9197 0 76.6531 0L11.3472 0C5.07959 0 0 5.02252 0 11.2179L0 75.7817L0 75.7821Z" fill="#563D7C" fill-opacity="1.000000" fill-rule="nonzero"/>
		<path id="Vector" d="M36.4918 38.4832L36.4918 26.1628L47.4612 26.1628C48.5062 26.1628 49.5134 26.2488 50.4834 26.4211C51.4535 26.5931 52.3119 26.9003 53.0581 27.3431C53.8041 27.7859 54.4012 28.4008 54.8491 29.1875C55.2966 29.9745 55.5208 30.9828 55.5208 32.2121C55.5208 34.4255 54.8491 36.0241 53.5057 37.0076C52.1627 37.9915 50.4463 38.4832 48.3567 38.4832L36.4918 38.4832ZM24.7758 17.1621L24.7758 69.8379L50.5955 69.8379C52.9835 69.8379 55.3094 69.5429 57.5729 68.9526C59.8365 68.3623 61.8513 67.4525 63.6174 66.223C65.3833 64.9934 66.7889 63.407 67.8335 61.4645C68.8785 59.5216 69.4007 57.2222 69.4007 54.5663C69.4007 51.2709 68.5922 48.4553 66.9755 46.1192C65.3585 43.7828 62.9083 42.1474 59.6248 41.2128C62.0128 40.0818 63.8165 38.6307 65.0354 36.8601C66.254 35.0895 66.8635 32.8765 66.8635 30.2203C66.8635 27.7612 66.453 25.6956 65.6322 24.0232C64.8113 22.3512 63.6546 21.0109 62.162 20.0025C60.6698 18.9942 58.8788 18.2686 56.7892 17.8262C54.6999 17.3834 52.3864 17.1621 49.8492 17.1621L24.7758 17.1621ZM36.4918 60.8372L36.4918 46.3771L49.2521 46.3771C51.7894 46.3771 53.8292 46.9548 55.3716 48.111C56.9136 49.2668 57.685 51.1971 57.685 53.9023C57.685 55.2797 57.4485 56.4106 56.9759 57.296C56.5032 58.1813 55.869 58.8823 55.0728 59.3986C54.2771 59.9152 53.3565 60.2839 52.3119 60.5054C51.2668 60.7263 50.1727 60.8372 49.0284 60.8372L36.4918 60.8372Z" fill="#FFFFFF" fill-opacity="1.000000" fill-rule="nonzero"/>
	</g>

	<g id="git">
		<path id="Vector" d="M103.02 47.8219L57.1758 1.98035C54.5373 -0.65979 50.2552 -0.65979 47.6134 1.98035L38.0937 11.5001L50.1699 23.5764C52.9762 22.6281 56.1943 23.2642 58.4313 25.5012C60.6789 27.7526 61.3106 30.9981 60.3393 33.8134L71.9775 45.452C74.7932 44.482 78.0421 45.1096 80.291 47.3621C83.434 50.5039 83.434 55.596 80.291 58.7399C77.1471 61.8841 72.055 61.8841 68.9095 58.7399C66.5454 56.3732 65.9613 52.9013 67.1582 49.9888L56.3046 39.1352L56.3034 67.6973C57.0902 68.0863 57.8088 68.6002 58.4313 69.2189C61.5743 72.3607 61.5743 77.4532 58.4313 80.5995C55.2874 83.7422 50.1929 83.7422 47.0535 80.5995C43.9105 77.4532 43.9105 72.3611 47.0535 69.2194C47.8067 68.4658 48.7019 67.869 49.6872 67.4635L49.6872 38.6353C48.7004 38.2324 47.8048 37.6353 47.0535 36.8793C44.6722 34.5013 44.0996 31.0071 45.3198 28.0831L33.4154 16.1776L1.98105 47.6099C-0.660339 50.2525 -0.660339 54.5349 1.98105 57.1755L47.8259 103.018C50.4652 105.658 54.7464 105.658 57.3891 103.018L103.019 57.3884C105.66 54.747 105.66 50.4621 103.019 47.8219L103.02 47.8219Z" fill="#DE4C36" fill-opacity="1.000000" fill-rule="nonzero"/>
	</g>

	<g id="react">
			<path id="Vector" d="M92.9055 32.7028C91.703 32.2887 90.4904 31.9051 89.2686 31.5524C89.4739 30.7107 89.6628 29.8792 89.8305 29.0624C92.5838 15.6484 90.7839 4.84186 84.636 1.28381C78.7415 -2.12714 69.1016 1.42957 59.3658 9.93347C58.4063 10.7731 57.4681 11.6369 56.5521 12.524C55.9389 11.9341 55.3148 11.3556 54.6803 10.7889C44.4767 1.69623 34.2493 -2.13599 28.108 1.43219C22.2188 4.85382 20.475 15.0127 22.9537 27.7254C23.2003 28.9845 23.4788 30.2371 23.7888 31.4819C22.3411 31.8948 20.9442 32.3342 19.6073 32.802C7.64436 36.9882 0.00469971 43.5483 0.00469971 50.353C0.00469971 57.3809 8.20624 64.4301 20.6661 68.7044C21.6762 69.0495 22.6948 69.3693 23.7208 69.6635C23.3876 71.0042 23.0918 72.3541 22.8337 73.7114C20.4706 86.2036 22.3159 96.1224 28.1892 99.5223C34.2554 103.033 44.437 99.4248 54.3505 90.7268C55.1544 90.0197 55.9406 89.2925 56.7083 88.546C57.7003 89.5067 58.7188 90.4393 59.7626 91.343C69.3659 99.6365 78.8501 102.985 84.7177 99.5763C90.7781 96.0551 92.7479 85.3995 90.1907 72.4357C89.9892 71.42 89.7633 70.4094 89.5131 69.4048C90.2282 69.1921 90.9299 68.9733 91.6141 68.7456C104.567 64.4385 112.995 57.4748 112.995 50.353C112.995 43.5235 105.109 36.9191 92.9055 32.7028ZM90.0962 64.1475C89.4783 64.3525 88.8445 64.5505 88.1983 64.7433C86.7683 60.1996 84.8386 55.3684 82.4768 50.3765C84.7305 45.5037 86.586 40.7341 87.9759 36.2201C89.1318 36.5558 90.2533 36.9098 91.3347 37.2832C101.791 40.8962 108.169 46.2372 108.169 50.353C108.169 54.7367 101.281 60.4277 90.0962 64.1475ZM85.4556 73.3765C86.5864 79.1088 86.7475 84.2916 85.9985 88.3436C85.3259 91.9844 83.9726 94.4116 82.299 95.3839C78.7384 97.4526 71.1235 94.7637 62.9109 87.6707C61.9401 86.8305 60.9927 85.9634 60.0698 85.0704C63.2539 81.5757 66.4357 77.5131 69.5412 73.0009C75.0036 72.5145 80.1641 71.7189 84.8439 70.6332C85.0693 71.5427 85.2733 72.4574 85.4556 73.3765ZM38.5257 95.0264C35.0468 96.2593 32.2759 96.2947 30.6009 95.3254C27.0368 93.2625 25.5551 85.2981 27.5762 74.6151C27.8164 73.3527 28.0915 72.0973 28.4011 70.8502C33.0293 71.8779 38.1523 72.6168 43.6275 73.0625C46.7541 77.4777 50.0278 81.5358 53.327 85.0894C52.6259 85.7704 51.9081 86.4338 51.1745 87.0793C46.7903 90.9253 42.3974 93.6541 38.5257 95.0264ZM22.2277 64.1204C16.718 62.2302 12.168 59.7739 9.04926 57.0934C6.24655 54.6849 4.83195 52.2932 4.83195 50.353C4.83195 46.2235 10.9657 40.9564 21.1962 37.3767C22.4378 36.9426 23.7372 36.5328 25.0855 36.1483C26.4997 40.7642 28.3543 45.5905 30.5925 50.4708C28.3252 55.4233 26.4441 60.3267 25.0162 64.9971C24.0797 64.7278 23.1499 64.4355 22.2277 64.1204ZM27.6909 26.7947C25.5675 15.9031 26.9777 7.68713 30.5267 5.62506C34.3066 3.42871 42.6653 6.56018 51.4755 14.4116C52.05 14.9247 52.6152 15.4483 53.1708 15.982C49.8879 19.5201 46.6442 23.5481 43.5454 27.9372C38.2313 28.4315 33.1445 29.2253 28.4677 30.2889C28.1796 29.1311 27.9206 27.9661 27.6909 26.7952L27.6909 26.7947ZM76.4301 38.874C75.3254 36.9589 74.1798 35.068 72.994 33.2025C76.5991 33.66 80.0533 34.2674 83.2969 35.0098C82.3232 38.1426 81.1095 41.4176 79.6808 44.7754C78.6364 42.7867 77.5527 40.8192 76.4301 38.874ZM56.5543 19.4443C58.7806 21.8652 61.0104 24.5679 63.2035 27.5004C58.7545 27.2895 54.2981 27.2886 49.849 27.4977C52.0444 24.5922 54.2932 21.8931 56.5543 19.4443ZM36.551 38.9072C35.4424 40.8367 34.3789 42.792 33.3612 44.7714C31.9559 41.4255 30.7532 38.1355 29.7711 34.9584C32.9949 34.2346 36.4327 33.6428 40.0149 33.1936C38.8158 35.0705 37.6609 36.9754 36.551 38.9067L36.551 38.9072ZM40.1177 67.857C36.4168 67.4424 32.9274 66.8811 29.7045 66.1768C30.702 62.943 31.9312 59.5829 33.3669 56.1653C34.3886 58.1462 35.4566 60.1027 36.57 62.0331C37.7149 64.0176 38.9004 65.9615 40.1177 67.857ZM56.6876 81.6027C54.3995 79.1255 52.1177 76.3848 49.8892 73.4373C52.0528 73.5223 54.2583 73.5657 56.5 73.5657C58.8031 73.5657 61.0797 73.5139 63.3205 73.4138C61.1203 76.4145 58.8989 79.1592 56.6876 81.6027ZM79.7262 55.9908C81.2366 59.446 82.5095 62.7884 83.5202 65.9668C80.2444 66.7172 76.7073 67.3214 72.9803 67.7701C74.1746 65.87 75.331 63.9462 76.449 61.9999C77.5857 60.0215 78.6784 58.018 79.7262 55.9908ZM72.268 59.5794C70.5564 62.5635 68.7486 65.491 66.8475 68.3571C63.4037 68.6019 59.9524 68.7235 56.5 68.7217C52.9836 68.7217 49.5634 68.6118 46.27 68.3974C44.3192 65.5379 42.4769 62.6053 40.7471 59.606L40.7475 59.606C39.0258 56.6226 37.4176 53.5745 35.9265 50.4686C37.4138 47.3619 39.0172 44.3125 40.733 41.3268L40.7325 41.3272C42.4477 38.3407 44.2752 35.4207 46.2112 32.5734C49.5714 32.3183 53.0172 32.1854 56.4996 32.1854L56.5 32.1854C59.9983 32.1854 63.4485 32.3196 66.8078 32.5765C68.7242 35.4196 70.5401 38.3295 72.2521 41.3011C73.9736 44.2802 75.5981 47.3148 77.123 50.3999C75.6138 53.5167 73.9944 56.5784 72.268 59.5794ZM82.2253 5.48065C86.0087 7.67072 87.4802 16.5024 85.103 28.0842C84.9511 28.8231 84.7808 29.5757 84.5954 30.3391C79.9072 29.2528 74.8169 28.4453 69.4873 27.9434C66.3827 23.506 63.1656 19.4718 59.9361 15.9793C60.7825 15.1605 61.649 14.3629 62.5349 13.5872C70.8768 6.30145 78.6731 3.42474 82.2253 5.48065ZM56.5 40.2264C62.0723 40.2264 66.5897 44.7603 66.5897 50.353C66.5897 55.9456 62.0723 60.4796 56.5 60.4796C50.9277 60.4796 46.4103 55.9456 46.4103 50.353C46.4103 44.7603 50.9277 40.2264 56.5 40.2264Z" fill="#00D8FF" fill-opacity="1.000000" fill-rule="nonzero"/>
	</g>

<g id="sass">
		<path id="Vector" d="M100.673 50.0767C96.6031 50.0975 93.0654 51.0695 90.1035 52.5063C89.0163 50.3721 87.9295 48.4708 87.738 47.0761C87.5246 45.4494 87.2691 44.4561 87.5246 42.5122C87.7805 40.5684 88.9313 37.8002 88.9098 37.5891C88.8888 37.3779 88.6539 36.3846 86.3099 36.3638C83.9659 36.3425 81.9413 36.8074 81.7069 37.42C81.4725 38.0327 81.025 39.4274 80.7266 40.8638C80.3217 42.9772 76.0386 50.5198 73.5882 54.4711C72.7994 52.9291 72.1175 51.5765 71.9681 50.499C71.7551 48.8723 71.4992 47.879 71.7551 45.9351C72.011 43.9912 73.1618 41.2236 73.1403 41.012C73.1188 40.8008 72.8844 39.8076 70.5404 39.7867C68.1959 39.7654 66.1714 40.2303 65.9374 40.8429C65.7029 41.456 65.447 42.8924 64.9571 44.2871C64.4667 45.6818 58.777 58.2751 57.2853 61.5285C56.6825 62.8454 56.0501 64.1487 55.3887 65.4376C55.3887 65.4376 55.3672 65.5011 55.3032 65.6066C55.0954 66.0108 54.8825 66.4123 54.6644 66.811L54.6644 66.8319C54.3444 67.4028 54.0035 67.9307 53.8331 67.9307C53.7051 67.9307 53.4706 66.4096 53.8755 64.3388C54.7279 59.9653 56.7524 53.1616 56.7314 52.9291C56.7314 52.8022 57.1148 51.6191 55.4102 51.006C53.7476 50.3934 53.1512 51.4075 53.0017 51.4075C52.8528 51.4075 52.7458 51.7668 52.7458 51.7668C52.7458 51.7668 54.6004 44.1181 49.2086 44.1181C45.8418 44.1181 41.1959 47.7734 38.8944 51.0695C36.278 52.4812 33.664 53.8969 31.0521 55.3167C29.7953 56.014 28.4951 56.7114 27.2804 57.3661C27.1949 57.2819 27.1099 57.1758 27.0245 57.0916C20.5034 50.1823 8.44206 45.3012 8.95345 36.0258C9.1454 32.645 10.3172 23.7705 32.1178 12.9948C50.0609 4.22589 64.3392 6.65552 66.8112 12.0436C70.3484 19.735 59.1609 34.0184 40.6205 36.0887C33.5455 36.8708 29.8374 34.1661 28.9 33.152C27.9198 32.0953 27.7703 32.0319 27.4079 32.2435C26.8115 32.5607 27.1949 33.5114 27.4079 34.0605C27.9623 35.4969 30.2423 38.0327 34.0994 39.2797C37.5092 40.378 45.7988 40.9911 55.8361 37.1454C67.0666 32.8348 75.8467 20.8547 73.2682 10.8184C70.6893 0.633972 53.6411 -2.72552 37.5092 2.95807C27.9198 6.33929 17.5201 11.6635 10.0402 18.5941C1.15369 26.8341 -0.252979 33.9971 0.322395 36.9977C2.3899 47.6466 17.2006 54.5771 23.1248 59.7115C22.8264 59.8805 22.549 60.0287 22.315 60.1556C19.3527 61.6133 8.05817 67.4658 5.24529 73.6569C2.04897 80.6717 5.75714 85.7009 8.20762 86.3765C15.8154 88.4686 23.6362 84.7077 27.8343 78.4954C32.0324 72.2834 31.521 64.2119 29.5819 60.5144C29.5604 60.4723 29.5394 60.4297 29.4964 60.3876C30.2638 59.944 31.0521 59.4791 31.8194 59.0355C33.2297 58.2089 34.6579 57.4127 36.103 56.6475C35.3781 58.6127 34.8453 60.9581 34.5898 64.3388C34.2699 68.3113 35.9106 73.4666 38.0631 75.4948C39.0223 76.3829 40.1516 76.4037 40.8764 76.4037C43.3909 76.4037 44.5206 74.3329 45.7778 71.882C47.312 68.8818 48.6972 65.3955 48.6972 65.3955C48.6972 65.3955 46.9711 74.8192 51.6595 74.8192C53.3642 74.8192 55.0903 72.6215 55.8576 71.5018L55.8576 71.5226C55.8576 71.5226 55.9001 71.4592 55.9856 71.3115C56.156 71.0369 56.2625 70.8674 56.2625 70.8674L56.2625 70.8257C56.9444 69.6422 58.479 66.9588 60.759 62.5005C63.6999 56.7535 66.5342 49.5696 66.5342 49.5696C66.5342 49.5696 66.7901 51.3232 67.6635 54.2391C68.1753 55.9506 69.2402 57.8311 70.0929 59.6481C69.4111 60.5992 68.9847 61.1271 68.9847 61.1271L69.0062 61.1484C68.4518 61.8666 67.8554 62.6482 67.1946 63.4094C64.8716 66.1558 62.1017 69.3046 61.7178 70.2126C61.2699 71.2902 61.3769 72.0723 62.2297 72.7062C62.8475 73.1711 63.9553 73.2341 65.0851 73.1711C67.1736 73.0229 68.6438 72.5159 69.3681 72.1992C70.4979 71.7977 71.8191 71.1846 73.0548 70.2761C75.3353 68.6068 76.72 66.2193 76.5925 63.0714C76.5285 61.3387 75.9532 59.6059 75.2498 57.9788C75.4633 57.6833 75.6547 57.3875 75.8682 57.0916C79.4694 51.8724 82.2613 46.1463 82.2613 46.1463C82.2613 46.1463 82.5172 47.8999 83.3905 50.8162C83.8169 52.2952 84.6907 53.9011 85.4576 55.4644C82.0693 58.1904 79.9808 61.3595 79.2349 63.4303C77.8927 67.2759 78.9365 69.0082 80.9186 69.4097C81.8134 69.6 83.0921 69.1773 84.0299 68.7758C85.2231 68.3956 86.6298 67.7408 87.9725 66.7684C90.253 65.0996 92.4475 62.7751 92.3195 59.6272C92.2556 58.1904 91.8721 56.7744 91.3393 55.4009C94.2161 54.2183 97.9243 53.563 102.655 54.1122C112.799 55.2953 114.802 61.5707 114.418 64.2124C114.035 66.8532 111.904 68.29 111.201 68.7336C110.497 69.1777 110.263 69.3254 110.327 69.6422C110.412 70.1071 110.753 70.0862 111.35 70.0015C112.181 69.8538 116.678 67.8673 116.869 63.0075C117.189 56.7957 111.222 50.0132 100.673 50.0767ZM22.4215 76.2347C19.0543 79.8688 14.3663 81.2422 12.3417 80.0804C10.1682 78.8334 11.0205 73.4666 15.1546 69.6213C17.6691 67.276 20.9083 65.0991 23.0608 63.7683C23.5508 63.4724 24.2756 63.0501 25.1494 62.5218C25.2984 62.4371 25.3838 62.3949 25.3838 62.3949L25.8952 62.0777C27.4079 67.5714 25.9592 72.4103 22.4215 76.2347ZM46.9286 59.7115C45.7563 62.5431 43.3059 69.7903 41.8142 69.3889C40.5355 69.0508 39.7467 63.5572 41.5583 58.127C42.4746 55.4009 44.4137 52.147 45.5434 50.8796C47.376 48.851 49.4005 48.1745 49.8904 48.9991C50.5088 50.0767 47.6529 57.9366 46.9286 59.7115ZM67.1521 69.3041C66.6617 69.5579 66.1933 69.7269 65.9799 69.6C65.8309 69.5153 66.1933 69.1773 66.1933 69.1773C66.1933 69.1773 68.7292 66.473 69.7305 65.2473C70.3064 64.5291 70.9878 63.684 71.7126 62.7329L71.7126 63.0075C71.7126 66.2406 68.5583 68.4169 67.1516 69.3041L67.1521 69.3041ZM82.7512 65.7756C82.3888 65.5219 82.4527 64.6768 83.6675 62.0356C84.1364 61.0002 85.2441 59.2679 87.1412 57.5986C87.3542 58.2747 87.5036 58.9299 87.4821 59.5425C87.4606 63.6206 84.5202 65.1417 82.7512 65.7756Z" fill="#CD6799" fill-opacity="1.000000" fill-rule="nonzero"/>
	</g>

	<g id="css">
		<path id="Vector" d="M22.1325 101.154L13.71 7.4375L106.29 7.4375L97.8562 101.139L59.9437 111.562L22.1325 101.154Z" fill="#1572B6" fill-opacity="1.000000" fill-rule="nonzero"/>
		<path id="Vector" d="M60 103.597L90.6375 95.174L97.845 15.1018L60 15.1018L60 103.597Z" fill="#33A9DC" fill-opacity="1.000000" fill-rule="nonzero"/>
		<path id="Vector" d="M60 49.0541L75.3375 49.0541L76.395 37.2842L60 37.2842L60 25.7896L89.0625 25.7896L88.785 28.8724L85.9388 60.5487L60 60.5487L60 49.0541Z" fill="#FFFFFF" fill-opacity="1.000000" fill-rule="nonzero"/>
		<path id="Vector" d="M60.0713 78.9045L60.0188 78.9194L47.1113 75.4609L46.2863 66.2942L34.65 66.2942L36.2738 84.3413L60.015 90.8788L60.0713 90.864L60.0713 78.9045Z" fill="#EBEBEB" fill-opacity="1.000000" fill-rule="nonzero"/>
		<path id="Vector" d="M74.3513 60.0615L72.9563 75.4534L60.03 78.9119L60.03 90.8714L83.79 84.3412L83.9663 82.4001L85.98 60.0615L74.3513 60.0615Z" fill="#FFFFFF" fill-opacity="1.000000" fill-rule="nonzero"/>
		<path id="Vector" d="M60.0413 25.7896L60.0413 37.2842L32.0438 37.2842L31.8112 34.6997L31.2825 28.8724L31.005 25.7896L60.0413 25.7896ZM60 49.0541L60 60.5487L47.2538 60.5487L47.0213 57.9642L46.4963 52.1369L46.2188 49.0541L60 49.0541Z" fill="#EBEBEB" fill-opacity="1.000000" fill-rule="nonzero"/>
	</g>

<g id="html">
		<path id="Vector" d="M22.1325 102.004L13.7062 7.5L106.294 7.5L97.8562 101.989L59.9437 112.5L22.1325 102.004Z" fill="#E44F26" fill-opacity="1.000000" fill-rule="nonzero"/>
		<path id="Vector" d="M60 104.468L90.6375 95.9738L97.845 15.2288L60 15.2288L60 104.468Z" fill="#F1662A" fill-opacity="1.000000" fill-rule="nonzero"/>
		<path id="Vector" d="M60 50.2763L44.6625 50.2763L43.605 38.4075L60 38.4075L60 26.8163L30.9375 26.8163L31.215 29.9288L34.0612 61.8676L60 61.8676L60 50.2763ZM60 80.3776L59.9475 80.3925L47.04 76.9088L46.215 67.665L34.5788 67.665L36.2025 85.86L59.9475 92.4525L60 92.4376L60 80.3776Z" fill="#EBEBEB" fill-opacity="1.000000" fill-rule="nonzero"/>
		<path id="Vector" d="M59.9587 50.2763L59.9587 61.8676L74.2312 61.8676L72.8887 76.9013L59.9587 80.3888L59.9587 92.4488L83.7225 85.86L83.895 83.9025L86.6175 53.3888L86.9025 50.2763L59.9587 50.2763ZM59.9587 26.8163L59.9587 38.4075L87.9562 38.4075L88.1887 35.8051L88.7175 29.9288L88.995 26.8163L59.9587 26.8163Z" fill="#FFFFFF" fill-opacity="1.000000" fill-rule="nonzero"/>
	</g>

	<g id="js">
		<path id="Vector" d="M7.5 7.5L112.5 7.5L112.5 112.5L7.5 112.5L7.5 7.5Z" fill="#F5DE19" fill-opacity="1.000000" fill-rule="nonzero"/>
		<path id="Vector" d="M78.0338 89.5312C78.9284 91.3485 80.3184 92.8759 82.0434 93.9375C83.7684 94.9991 85.7584 95.5515 87.7838 95.5312C91.8713 95.5312 94.485 93.4875 94.485 90.6562C94.485 87.2812 91.8 86.0737 87.3 84.105L84.8325 83.0475C77.7075 80.0137 72.9825 76.215 72.9825 68.1825C72.9825 60.7838 78.6075 55.1475 87.4313 55.1475C90.2877 54.9412 93.1416 55.5805 95.637 56.9856C98.1324 58.3907 100.159 60.4995 101.464 63.0488L93.75 67.98C93.2476 66.7159 92.3728 65.6345 91.2416 64.879C90.1104 64.1236 88.7764 63.7299 87.4163 63.75C86.8229 63.6906 86.2236 63.7554 85.6567 63.9404C85.0897 64.1254 84.5675 64.4265 84.1234 64.8245C83.6792 65.2224 83.3228 65.7085 83.0769 66.2518C82.831 66.7951 82.7009 67.3837 82.695 67.98C82.695 70.9388 84.5288 72.1387 88.7625 73.98L91.23 75.0375C99.615 78.6337 104.355 82.2975 104.355 90.5363C104.355 99.42 97.3763 104.287 88.005 104.287C84.3537 104.52 80.713 103.691 77.5223 101.901C74.3317 100.11 71.7274 97.4342 70.0238 94.1962L78.0338 89.5312ZM43.1775 90.3862C44.7263 93.135 46.1363 95.46 49.5263 95.46C52.7663 95.46 54.8138 94.1925 54.8138 89.2612L54.8138 55.71L64.68 55.71L64.68 89.3925C64.68 99.6075 58.68 104.258 49.9463 104.258C46.8591 104.426 43.7931 103.657 41.1513 102.051C38.5096 100.444 36.4157 98.0761 35.145 95.2575L43.1775 90.3862Z" fill="#000000" fill-opacity="1.000000" fill-rule="nonzero"/>
	</g>

	<g id="tailwind">
		<path id="Vector" d="M36.8438 56.0844C40.6646 40.8011 50.2167 33.1594 65.5 33.1594C88.425 33.1594 91.2906 50.3531 102.753 53.2188C110.395 55.1292 117.081 52.2636 122.812 44.6219C118.992 59.9053 109.44 67.5469 94.1562 67.5469C71.2313 67.5469 68.3656 50.3531 56.9031 47.4875C49.2614 45.5771 42.575 48.4427 36.8438 56.0844ZM8.1875 90.4719C12.0083 75.1886 21.5604 67.5469 36.8438 67.5469C59.7687 67.5469 62.6344 84.7407 74.0969 87.6063C81.7385 89.5167 88.425 86.6511 94.1562 79.0094C90.3354 94.2927 80.7833 101.934 65.5 101.934C42.575 101.934 39.7094 84.7407 28.2469 81.8751C20.6052 79.9646 13.9188 82.8303 8.1875 90.4719Z" fill="#44A8B3" fill-opacity="1.000000" fill-rule="nonzero"/>
	</g>

<g id="vscode">
		<path id="Vector" d="M101.535 17.605L81.354 7.88898C80.2143 7.33948 78.9319 7.15814 77.6846 7.37012C76.4372 7.58209 75.2867 8.17688 74.3925 9.07196L8.32996 69.3C7.52844 70.0273 7.04865 71.0432 6.99615 72.1243C6.9436 73.2053 7.32269 74.2629 8.04999 75.0645C8.13745 75.159 8.22498 75.25 8.31946 75.334L13.713 80.234C14.4177 80.8754 15.325 81.2498 16.277 81.2919C17.229 81.3341 18.1657 81.0416 18.9245 80.465L98.497 20.125C99.098 19.6689 99.8144 19.3896 100.566 19.3187C101.317 19.2476 102.073 19.3877 102.749 19.7231C103.424 20.0585 103.993 20.5759 104.391 21.217C104.789 21.8581 105 22.5975 105 23.352L105 23.1175C105 21.9656 104.675 20.8372 104.062 19.862C103.449 18.8868 102.573 18.1045 101.535 17.605Z" fill="#0065A9" fill-opacity="1.000000" fill-rule="nonzero"/>
		<path id="Vector" d="M101.535 94.395L81.354 104.115C80.214 104.662 78.9319 104.843 77.6849 104.631C76.4379 104.419 75.2875 103.825 74.3925 102.932L8.32996 42.7C7.52844 41.9727 7.04865 40.9568 6.99615 39.8757C6.9436 38.7947 7.32269 37.7371 8.04999 36.9355C8.13745 36.841 8.22498 36.75 8.31946 36.666L13.713 31.766C14.4185 31.1219 15.3277 30.7459 16.2821 30.7037C17.2365 30.6615 18.1754 30.9557 18.935 31.535L98.497 91.875C99.098 92.3311 99.8144 92.6104 100.566 92.6813C101.317 92.7524 102.073 92.6123 102.749 92.2769C103.424 91.9415 103.993 91.4242 104.391 90.783C104.789 90.1419 105 89.4025 105 88.648L105 88.9C104.996 90.0488 104.669 91.1733 104.057 92.1451C103.444 93.1168 102.57 93.8965 101.535 94.395Z" fill="#007ACC" fill-opacity="1.000000" fill-rule="nonzero"/>
		<path id="Vector" d="M81.354 104.115C80.214 104.662 78.9319 104.843 77.6849 104.631C76.4379 104.419 75.2875 103.825 74.3925 102.932C74.8951 103.428 75.533 103.764 76.2261 103.899C76.9192 104.035 77.6368 103.962 78.2889 103.691C78.9411 103.42 79.4987 102.963 79.8921 102.376C80.2854 101.79 80.4969 101.1 80.5 100.394L80.5 11.606C80.5006 10.8965 80.2906 10.2028 79.8966 9.61279C79.5026 9.02277 78.9423 8.56293 78.2868 8.29156C77.6312 8.0202 76.9099 7.94952 76.2141 8.08844C75.5184 8.22742 74.8795 8.5697 74.3785 9.07202C75.2728 8.17725 76.4231 7.5824 77.6702 7.36987C78.9174 7.15729 80.1997 7.33752 81.34 7.88556L101.517 17.5875C102.559 18.0845 103.438 18.8658 104.054 19.8412C104.671 20.8166 104.998 21.9463 105 23.1L105 88.9C105 90.0529 104.675 91.1823 104.061 92.1582C103.447 93.1341 102.571 93.9168 101.531 94.416L81.354 104.115Z" fill="#1F9CF0" fill-opacity="1.000000" fill-rule="nonzero"/>
	</g>
<g id="redux">
	<path id="Vector" d="M72.6971 69.5627C76.5688 69.1619 79.5062 65.8242 79.3726 61.8184C79.2393 57.8131 75.9012 54.6086 71.8959 54.6086L71.6291 54.6086C67.4897 54.7422 64.2856 58.2135 64.4193 62.3525C64.5529 64.3553 65.3537 66.091 66.5553 67.2926C62.016 76.2385 55.0734 82.7808 44.6594 88.2549C37.5832 91.9934 30.2402 93.3287 22.8971 92.3943C16.8889 91.593 12.216 88.923 9.27826 84.5164C5.00613 77.9742 4.60574 70.8975 8.21066 63.8213C10.7475 58.7476 14.7524 55.009 17.2893 53.1398C16.7553 51.4041 15.9541 48.4668 15.5537 46.3307C-3.80576 60.35 -1.80289 79.3094 4.07172 88.2549C8.47745 94.9312 17.4229 99.0701 27.3029 99.0701C29.973 99.0701 32.643 98.8029 35.3135 98.1356C52.4033 94.7975 65.3541 84.65 72.6971 69.5627ZM96.1955 53.0065C86.0483 41.1234 71.0951 34.5812 54.0053 34.5812L51.8693 34.5812C50.6676 32.1779 48.1307 30.5754 45.327 30.5754L45.0598 30.5754C40.9213 30.709 37.7172 34.1803 37.8504 38.3197C37.984 42.325 41.3217 45.5295 45.327 45.5295L45.5939 45.5295C48.5311 45.3959 51.068 43.5266 52.136 40.9897L54.5394 40.9897C64.6865 40.9897 74.2992 43.9271 82.9778 49.6685C89.6533 54.0746 94.4598 59.816 97.1299 66.7586C99.3996 72.3664 99.266 77.8406 96.8627 82.5139C93.1246 89.5901 86.8496 93.4623 78.5717 93.4623C73.2311 93.4623 68.1578 91.8599 65.4873 90.6582C64.0189 91.9934 61.3484 94.1295 59.4791 95.4651C65.2205 98.1353 71.0951 99.6041 76.7025 99.6041C89.5197 99.6041 98.9991 92.5275 102.604 85.4512C106.476 77.707 106.209 64.3553 96.1955 53.0065ZM28.3709 71.832C28.5045 75.8377 31.8422 79.0418 35.8475 79.0418L36.1147 79.0418C40.2537 78.9086 43.4578 75.4369 43.3242 71.298C43.191 67.2922 39.8528 64.0881 35.8475 64.0881L35.5807 64.0881C35.3135 64.0881 34.9127 64.0881 34.6463 64.2213C29.1721 55.1422 26.9025 45.2623 27.7037 34.5807C28.2373 26.5697 30.9078 19.6266 35.5807 13.8853C39.4525 8.94507 46.9291 6.54181 52.0029 6.40863C66.1549 6.14142 72.1627 23.7656 72.5635 30.8422C74.2992 31.2426 77.2365 32.1775 79.2393 32.8451C77.6369 11.2156 64.2856 0 51.4689 0C39.4525 0 28.3709 8.67871 23.9648 21.4963C17.8234 38.5865 21.8287 55.009 29.3053 67.9603C28.6381 68.8947 28.2373 70.3635 28.3709 71.8324L28.3709 71.832Z" fill="#764ABC" fill-opacity="1.000000" fill-rule="nonzero"/>
</g>


<g id="instagram">
<path id="Vector" d="M24.75 18.75C24.75 19.9368 24.3981 21.0967 23.7388 22.0835C23.0795 23.0701 22.1425 23.8391 21.0461 24.2932C19.9497 24.7473 18.7433 24.8662 17.5795 24.6348C16.4156 24.4033 15.3465 23.8318 14.5074 22.9927C13.6682 22.1536 13.0968 21.0845 12.8653 19.9207C12.6338 18.7566 12.7526 17.5503 13.2067 16.4539C13.6609 15.3574 14.4299 14.4204 15.4166 13.7612C16.4033 13.1018 17.5633 12.75 18.75 12.75C20.3407 12.752 21.8658 13.3845 22.9906 14.5093C24.1154 15.6343 24.7482 17.1592 24.75 18.75ZM37.5 10.5L37.5 27C37.4968 29.7837 36.3896 32.4526 34.4211 34.4211C32.4527 36.3896 29.7838 37.4968 27 37.5L10.5 37.5C7.7162 37.4968 5.04733 36.3896 3.07889 34.4211C1.11044 32.4526 0.00317383 29.7837 0 27L0 10.5C0.00317383 7.71631 1.11044 5.04736 3.07889 3.07886C5.04733 1.11035 7.7162 0.00317383 10.5 0L27 0C29.7838 0.00317383 32.4527 1.11035 34.4211 3.07886C36.3896 5.04736 37.4968 7.71631 37.5 10.5ZM27.75 18.75C27.75 16.97 27.2222 15.23 26.2332 13.7498C25.2443 12.2698 23.8387 11.1162 22.1942 10.4351C20.5496 9.75391 18.74 9.57568 16.9942 9.92285C15.2484 10.2703 13.6447 11.1274 12.386 12.386C11.1274 13.6448 10.2702 15.2483 9.92294 16.9941C9.57567 18.74 9.7539 20.5496 10.4351 22.1941C11.1163 23.8386 12.2698 25.2444 13.7499 26.2332C15.2299 27.2222 16.97 27.75 18.75 27.75C21.1361 27.7473 23.4238 26.7983 25.111 25.1111C26.7982 23.4238 27.7473 21.1362 27.75 18.75ZM30.75 9C30.75 8.55493 30.618 8.11987 30.3708 7.75C30.1236 7.37988 29.7722 7.09155 29.361 6.92139C28.9499 6.75098 28.4975 6.7063 28.061 6.79321C27.6246 6.88013 27.2237 7.09424 26.909 7.40894C26.5943 7.72363 26.3801 8.12451 26.2932 8.56104C26.2064 8.99756 26.251 9.44995 26.4213 9.86108C26.5916 10.2722 26.88 10.6235 27.25 10.8708C27.62 11.1179 28.055 11.25 28.5 11.25C29.0967 11.25 29.669 11.0129 30.091 10.5911C30.5129 10.1689 30.75 9.59668 30.75 9Z" fill="#25282B" fill-opacity="1.000000" fill-rule="nonzero"/>
</g>

<g id="linkedin">
<path id="Vector" d="M0 2.72168C0 1.21826 1.24925 0 2.79062 0L35.2094 0C36.7508 0 38 1.21826 38 2.72168L38 35.2783C38 36.7817 36.7508 38 35.2094 38L2.79062 38C1.24925 38 0 36.7817 0 35.2783L0 2.72168ZM11.7396 31.8108L11.7396 14.6514L6.03725 14.6514L6.03725 31.8108L11.7396 31.8108ZM8.88963 12.3071C10.8775 12.3071 12.1149 10.9915 12.1149 9.34326C12.0793 7.65942 10.8799 6.37915 8.92762 6.37915C6.97538 6.37915 5.7 7.66187 5.7 9.34326C5.7 10.9915 6.93738 12.3071 8.85163 12.3071L8.88963 12.3071ZM20.5461 31.8108L20.5461 22.2275C20.5461 21.7146 20.5841 21.2017 20.7361 20.8359C21.147 19.8123 22.0851 18.7507 23.6621 18.7507C25.726 18.7507 26.5501 20.3228 26.5501 22.6313L26.5501 31.8108L32.2525 31.8108L32.2525 21.9688C32.2525 16.6963 29.4405 14.2454 25.688 14.2454C22.6623 14.2454 21.3061 15.9077 20.5461 17.0786L20.5461 17.1379L20.5081 17.1379C20.5207 17.1182 20.5334 17.0984 20.5461 17.0786L20.5461 14.6514L14.8461 14.6514C14.9174 16.2617 14.8461 31.8108 14.8461 31.8108L20.5461 31.8108Z" fill="#25282B" fill-opacity="1.000000" fill-rule="nonzero"/>
</g>

<g id="mail">
<path id="Vector" d="M0.131248 4.14673C0.395897 2.96875 1.04647 1.91675 1.97642 1.16357C2.90637 0.410156 4.06057 0 5.25 0L36.75 0C37.9394 0 39.0936 0.410156 40.0236 1.16357C40.9535 1.91675 41.6041 2.96875 41.8687 4.14673L21 17.104L0.131248 4.14673ZM0 7.19189L0 26.136L15.2329 16.6479L0 7.19189ZM17.7476 18.2134L0.501373 28.9519C0.927483 29.8647 1.60001 30.6357 2.44068 31.1753C3.28135 31.7151 4.25558 32.001 5.25 32L36.75 32C37.7443 32.0002 38.7181 31.7136 39.5583 31.1736C40.3985 30.6335 41.0705 29.8621 41.496 28.9492L24.2497 18.2107L21 20.2292L17.7476 18.2107L17.7476 18.2134ZM26.7671 16.6506L42 26.136L42 7.19189L26.7671 16.6479L26.7671 16.6506Z" fill="#25282B" fill-opacity="1.000000" fill-rule="evenodd"/>
</g>
<g id="menu">
<path d="M 3 9 A 1.0001 1.0001 0 1 0 3 11 L 47 11 A 1.0001 1.0001 0 1 0 47 9 L 3 9 z M 3 24 A 1.0001 1.0001 0 1 0 3 26 L 47 26 A 1.0001 1.0001 0 1 0 47 24 L 3 24 z M 3 39 A 1.0001 1.0001 0 1 0 3 41 L 47 41 A 1.0001 1.0001 0 1 0 47 39 L 3 39 z"/>
	</g>
	</svg>
